# xmcd
#
# Track frame offsets:
#	150
#	32570
#	37617
#	67053
#	98566
#	152576
#	156008
#	177977
#
# Disc length: 3055 seconds
#
# Revision: 0
# Processed by: cddbd v1.5.2PL0 Copyright (c) Steve Scherf et al.
# Submitted via: audiograbber 1.83.01
#
DISCID=530bed08
DTITLE=Popa Chubby - Live Kulturfabrik Roth - 02.04.2004 CD1
DYEAR=2004
DGENRE=Blues Rock
TTITLE0=Coffeine and Nicotine
TTITLE1=Drum Solo
TTITLE2=Young Man Don't Go
TTITLE3=Devil Gonna Drag You Down
TTITLE4=Hey Joe
TTITLE5=Lord Help Me In This World
TTITLE6=Keep On The Sunny Side Of Life
TTITLE7=Hallelujah
EXTD=
EXTT0=
EXTT1=
EXTT2=
EXTT3=
EXTT4=
EXTT5=
EXTT6=
EXTT7=
PLAYORDER=
